<svg xmlns="http://www.w3.org/2000/svg" viewBox="0 0 1080 1080" aria-labelledby="title" width="2.5em" height="2.5em" stroke="currentColor">
  <path d="M478.172 802.255c0 0 5.753 132.879 8.617 158.86l46.237 5.806c0 0 72.22-124.262 37.541-156.050 0 0-89.532-49.047-92.395-8.617z" p-id="3153" fill="#9ccef9"></path>
  <path d="M629.766 808.035c-57.743 5.911-7.185 153.082-7.185 153.082l49.101-2.863c-2.89-149.555-6.497-153.876-41.917-150.219z" p-id="3154" fill="#9ccef9"></path>
  <path d="M651.481 720.652c-62.118-56.338-148.043-21.66-148.043-21.66-62.092 28.157-7.926 67.924-7.926 67.924 45.469 29.588 111.802 25.612 147.327 14.45 52.653-16.596 8.642-60.713 8.642-60.713z" p-id="3155" fill="#9ccef9"></path>
  <path d="M447.814 673.697c0 0-18.771 8.669-85.264-66.441 0 0 7.238-44.752-30.305-33.219 0 0-56.338 30.357-20.256 51.989 0 0 14.45 7.212 25.981 7.212l62.092 62.144c0 0 5.806 46.211 36.082 31.762 0.079 0 53.555-41.888 11.666-53.45z" p-id="3156" fill="#9ccef9"></path>
  <path d="M294.707 543.655l-39.027-47.669c0 0 18.771-40.378-21.66-30.33 0 0-53.45 23.091-27.44 41.863 0 0 14.45 5.806 24.603 4.349l36.082 44.752c0 0-10.101 53.474 37.541 21.634 0 0.106 43.295-34.598-10.101-34.598z" p-id="3157" fill="#9ccef9"></path>
  <path d="M225.377 446.939c-0.609-10.817-17.206-24.603-26.009-34.732-31.55-36.135-34.97-2.943-31.762 4.349 33.219 75.109 58.644 46.661 57.77 30.383z" p-id="3158" fill="#9ccef9"></path>
  <path d="M719.35 495.986c-14.66-0.371-33.696 0.796-31.789 50.558 1.035 26.327-23.57 105.465-41.888 96.769-12.646-5.991-14.819-46.581 24.603-132.932 4.878-10.657 39.61-34.492-14.475-44.752-14.795-2.811-41.81-18.319-30.383 52.017 5.011 30.674-4.878 96.928-33.193 119.861 0 0-24.549-17.312-11.586-135.769 0 0 42.499-44.487 8.669-60.659-13.521-6.444-51.62-22.589-56.338 20.256-1.194 10.657 2.89 28.873 14.45 40.406 0 0 12.965 153.082-18.797 135.769 0 0-43.295-92.395-28.844-150.219 0 0 26.406-53.474-31.789-53.474-4.349 0-51.884-7.875-12.965 60.687 15.907 28.022 31.734 93.881 25.956 135.769-2.572 18.665-30.33 51.989 60.687 44.752 0 0 67.924 1.485 86.668 8.669 0 0 59.202 28.897 53.45-21.634 0 0 4.349-76.566 43.374-115.54-0.025 0.079 53.45-49.047-5.806-50.532z" p-id="3159" fill="#9ccef9"></path>
  <path d="M785.074 381.188c-27.387-14.475-22.404 20.918-22.404 20.918-0.688 21.687-13.707 42.604-20.945 45.549-3.871 1.565-9.411 5.065-12.965 6.468-38.284 15.166 28.157 40.431 28.157 40.431 17.339-5.781 5.62-19.91 5.781-26.724 0.186-7.212 11.029-18.665 15.19-24.549 18.585-26.459 20.972-22.642 29.561-28.157 22.351-14.397-22.375-33.935-22.375-33.935z" p-id="3160" fill="#9ccef9"></path>
  <path d="M824.818 289.723c-22.244-7.61-14.316 18.293-14.316 18.293 1.987 16.332-5.277 33.59-10.366 36.56-2.757 1.644-6.468 4.985-8.96 6.415-26.937 15.882 25.85 27.069 25.85 27.069 12.327-6.389 1.857-15.616 1.194-20.733-0.716-5.409 6.073-15.27 8.484-20.228 10.817-21.979 13.095-19.381 18.902-24.603 15.059-13.415-20.785-22.773-20.785-22.773z" p-id="3161" fill="#9ccef9"></path>
  <path d="M725.767 301.043c10.605-9.597-1.617-16.835-3.366-22.084-1.882-5.515 2.598-17.444 3.871-23.198 5.753-25.717 8.51-23.541 13.044-30.357 11.772-17.683-25.265-19.090-25.265-19.090-23.382-2.757-9.942 22.642-9.942 22.642 5.515 16.702 2.173 36.507-2.095 40.881l-7.343 8.854c-22.8 23.039 31.099 22.351 31.099 22.351z" p-id="3162" fill="#9ccef9"></path>
  <path d="M595.355 261.991c12.381-12.541-1.828-21.872-3.871-28.739-2.201-7.212 2.943-22.773 4.508-30.305 6.655-33.513 9.942-30.649 15.19-39.503 13.682-23.091-29.429-24.868-29.429-24.868-27.228-3.58-11.612 29.481-11.612 29.481 6.415 21.741 2.545 47.616-2.492 53.316-2.704 3.075-6.073 8.75-8.538 11.534-26.591 30.038 36.242 29.085 36.242 29.085z" p-id="3163" fill="#9ccef9"></path>
  <path d="M417.166 152.575c-27.174 3.871-3.289 31.577-3.289 31.577 11.983 19.247 15.166 45.178 11.851 51.989-1.724 3.685-3.552 10.074-5.143 13.415-17.551 36.004 42.711 18.319 42.711 18.319 8.538-15.377-7.663-20.626-11.506-26.672-4.030-6.364-3.207-22.748-3.765-30.383-2.519-34.067 1.433-32.187 4.082-42.128 7.079-25.85-34.945-16.118-34.945-16.118z" p-id="3164" fill="#9ccef9"></path>
  <path d="M445.666 134.227c13.787-11.003-6.15-19.247-9.996-25.239-4.030-6.364-2.439-18.427-2.996-26.034-0.609-8.113-7.185-18.080-17.339-14.45-17.101 6.044 0.478 36.082-2.811 42.896-1.75 3.685-6.073 5.62-7.29 9.12-9.411 25.265 31.311 20.918 40.431 13.707z" p-id="3165" fill="#9ccef9"></path>
  <path d="M607.418 124.816c10.101-5.435 1.75-17.392-0.875-24.019-2.811-7.052 0.982-18.585 1.724-26.167 0.849-8.085-3.871-19.062-14.422-17.339-17.87 2.863-6.073 35.553-10.499 41.65-2.439 3.314-6.947 4.454-8.854 7.634-13.812 23.145 22.695 23.755 32.928 18.24z" p-id="3166" fill="#9ccef9"></path>
  <path d="M743.186 192.714c10.101-5.435 1.75-17.419-0.875-24.046-2.811-7.026 0.982-18.585 1.75-26.167 0.821-8.085-3.871-19.062-14.45-17.312-17.87 2.863-6.073 35.579-10.499 41.65-2.439 3.289-6.973 4.454-8.854 7.634-13.812 23.145 22.695 23.755 32.928 18.24z" p-id="3167" fill="#9ccef9"></path>
  <path d="M851.621 246.508c-2.811-6.998 0.982-18.532 1.75-26.115 0.849-8.113-3.871-19.090-14.422-17.339-17.897 2.863-6.073 35.579-10.526 41.65-2.439 3.314-6.947 4.454-8.801 7.634-13.812 23.172 22.667 23.755 32.928 18.24 10.048-5.435 1.724-17.419-0.928-24.074z" p-id="3168" fill="#9ccef9"></path>
  <path d="M544.557 391.317c-27.307 40.698 54.8 22.217 54.8 22.217 13.018-17.312-6.788-24.153-10.737-31.311-4.242-7.556-0.875-26.433-0.505-35.236 1.67-39.396 6.284-37.038 11.162-48.385 12.594-29.561-42.473-19.275-42.473-19.275-34.996 3.154-7.185 31.073-7.185 31.073 9.729 16.809 8.722 58.724 3.633 66.441-2.811 4.215-6.15 10.711-8.697 14.475z" p-id="3169" fill="#9ccef9"></path>
  <path d="M434.373 285.745c-34.334 7.715-3.049 31.734-3.049 31.734 11.798 15.324 16.332 57.001 12.274 65.353-2.226 4.508-4.693 11.399-6.706 15.457-21.766 43.983 57.239 14.848 57.239 14.848 10.605-18.877-9.888-23.039-14.819-29.561-5.118-6.947-4.295-26.087-5.037-34.863-3.552-39.29 1.433-37.568 4.718-49.444 8.617-31.020-44.62-13.521-44.62-13.521z" p-id="3170" fill="#9ccef9"></path>
  <path d="M687.589 449.111c11.083-12.221-1.433-23.411-2.863-31.073-3.154-16.093 3.154-54.084 16.623-63.551 11.772-8.272 18.055-18.771 12.938-26.724-11.745-18.532-36.986-17.127-46.953-8.642-14.397 12.274 2.89 31.045 2.89 31.045s-1.644 61.243-16.596 66.441c-14.45 5.065-15.775 17.153-10.127 23.12 13.733 14.397 34.837 19.513 44.090 9.386z" p-id="3171" fill="#9ccef9"></path>
</svg>
