<svg viewBox="0 0 1024 1024" version="1.1" xmlns="http://www.w3.org/2000/svg" width="1em" height="1em">
  <path d="M810.666667 640a42.666667 42.666667 0 0 1 85.333333 0v128a128 128 0 0 1-128 128h-128a42.666667 42.666667 0 0 1 0-85.333333h128a42.666667 42.666667 0 0 0 42.666667-42.666667v-128z m-341.333334 170.666667a42.666667 42.666667 0 0 1 0 85.333333H256a128 128 0 0 1-128-128V256a128 128 0 0 1 128-128h512a128 128 0 0 1 128 128v213.333333a42.666667 42.666667 0 0 1-85.333333 0V256a42.666667 42.666667 0 0 0-42.666667-42.666667H256a42.666667 42.666667 0 0 0-42.666667 42.666667v512a42.666667 42.666667 0 0 0 42.666667 42.666667h213.333333z m-128-170.666667V384a42.666667 42.666667 0 0 1 42.666667-42.666667h256a42.666667 42.666667 0 0 1 42.666667 42.666667v256a42.666667 42.666667 0 0 1-42.666667 42.666667H384a42.666667 42.666667 0 0 1-42.666667-42.666667z" fill="currentColor"></path>
</svg>