<svg viewBox="0 0 1024 1024" version="1.1" xmlns="http://www.w3.org/2000/svg" width="1em" height="1em">
  <path d="M938.666667 682.666667a85.333333 85.333333 0 0 1-85.333334 85.333333H341.333333a85.333333 85.333333 0 0 1-85.333333-85.333333V170.666667c0-47.36 37.973333-85.333333 85.333333-85.333334h512a85.333333 85.333333 0 0 1 85.333334 85.333334v512m-256 170.666666v85.333334H170.666667a85.333333 85.333333 0 0 1-85.333334-85.333334V298.666667h85.333334v554.666666h512m-128-256l298.666666-298.666666-60.16-60.16L554.666667 476.586667 422.826667 345.173333 362.666667 405.333333 554.666667 597.333333z" fill="currentColor"></path>
</svg>